HIERARCHY
ROOT hip
{
  OFFSET 0 0 0
  CHANNELS 6 Xposition Yposition Zposition Zrotation Yrotation Xrotation
  JOINT abdomen
  {
    OFFSET 0 20.6881 -0.73152
    CHANNELS 3 Zrotation Xrotation Yrotation
    JOINT chest
    {
      OFFSET 0 11.7043 -0.48768
      CHANNELS 3 Zrotation Xrotation Yrotation
      JOINT neck
      {
        OFFSET 0 22.1894 -2.19456
        CHANNELS 3 Zrotation Xrotation Yrotation
        JOINT head
        {
          OFFSET -0.24384 7.07133 1.2192
          CHANNELS 3 Zrotation Xrotation Yrotation
          JOINT leftEye
          {
            OFFSET 4.14528 8.04674 8.04672
            CHANNELS 3 Zrotation Xrotation Yrotation
            End Site
            {
              OFFSET 1 0 0
            }
          }
          JOINT rightEye
          {
            OFFSET -3.6576 8.04674 8.04672
            CHANNELS 3 Zrotation Xrotation Yrotation
            End Site
            {
              OFFSET 1 0 0
            }
          }
        }
      }
      JOINT rCollar
      {
        OFFSET -2.68224 19.2634 -4.8768
        CHANNELS 3 Zrotation Xrotation Yrotation
        JOINT rShldr
        {
          OFFSET -8.77824 -1.95073 1.46304
          CHANNELS 3 Zrotation Xrotation Yrotation
          JOINT rForeArm
          {
            OFFSET -28.1742 -1.7115 0.48768
            CHANNELS 3 Zrotation Xrotation Yrotation
            JOINT rHand
            {
              OFFSET -22.5879 0.773209 7.07136
              CHANNELS 3 Zrotation Xrotation Yrotation
              JOINT rThumb1
              {
                OFFSET -1.2192 -0.487915 3.41376
                CHANNELS 3 Zrotation Xrotation Yrotation
                JOINT rThumb2
                {
                  OFFSET -3.37035 -0.52449 3.41376
                  CHANNELS 3 Zrotation Xrotation Yrotation
                  End Site
                  {
                    OFFSET -1.78271 -1.18214 1.43049
                  }
                }
              }
              JOINT rIndex1
              {
                OFFSET -7.75947 0.938293 5.60832
                CHANNELS 3 Zrotation Xrotation Yrotation
                JOINT rIndex2
                {
                  OFFSET -2.54057 -0.884171 1.56538
                  CHANNELS 3 Zrotation Xrotation Yrotation
                  End Site
                  {
                    OFFSET -1.62519 -0.234802 1.16502
                  }
                }
              }
              JOINT rMid1
              {
                OFFSET -8.24714 1.18213 3.41376
                CHANNELS 3 Zrotation Xrotation Yrotation
                JOINT rMid2
                {
                  OFFSET -3.10165 -0.590103 1.0647
                  CHANNELS 3 Zrotation Xrotation Yrotation
                  End Site
                  {
                    OFFSET -2.48547 -0.328903 0.83742
                  }
                }
              }
              JOINT rRing1
              {
                OFFSET -8.82822 0.546677 1.51678
                CHANNELS 3 Zrotation Xrotation Yrotation
                JOINT rRing2
                {
                  OFFSET -2.60934 -0.819778 -0.0198488
                  CHANNELS 3 Zrotation Xrotation Yrotation
                  End Site
                  {
                    OFFSET -2.33842 -0.294052 0.168128
                  }
                }
              }
              JOINT rPinky1
              {
                OFFSET -8.27202 -0.0477905 -0.4584
                CHANNELS 3 Zrotation Xrotation Yrotation
                JOINT rPinky2
                {
                  OFFSET -1.82734 -0.647385 -0.700984
                  CHANNELS 3 Zrotation Xrotation Yrotation
                  End Site
                  {
                    OFFSET -1.69225 -0.51767 -0.607171
                  }
                }
              }
            }
          }
        }
      }
      JOINT lCollar
      {
        OFFSET 2.68224 19.2634 -4.8768
        CHANNELS 3 Zrotation Xrotation Yrotation
        JOINT lShldr
        {
          OFFSET 8.77824 -1.95073 1.46304
          CHANNELS 3 Zrotation Xrotation Yrotation
          JOINT lForeArm
          {
            OFFSET 28.1742 -1.7115 0.48768
            CHANNELS 3 Zrotation Xrotation Yrotation
            JOINT lHand
            {
              OFFSET 22.5879 0.773209 7.07136
              CHANNELS 3 Zrotation Xrotation Yrotation
              JOINT lThumb1
              {
                OFFSET 1.2192 -0.487915 3.41376
                CHANNELS 3 Zrotation Xrotation Yrotation
                JOINT lThumb2
                {
                  OFFSET 3.37035 -0.52449 3.41376
                  CHANNELS 3 Zrotation Xrotation Yrotation
                  End Site
                  {
                    OFFSET 1.78271 -1.18214 1.43049
                  }
                }
              }
              JOINT lIndex1
              {
                OFFSET 7.75947 0.938293 5.60832
                CHANNELS 3 Zrotation Xrotation Yrotation
                JOINT lIndex2
                {
                  OFFSET 2.54057 -0.884171 1.56538
                  CHANNELS 3 Zrotation Xrotation Yrotation
                  End Site
                  {
                    OFFSET 1.62519 -0.234802 1.16502
                  }
                }
              }
              JOINT lMid1
              {
                OFFSET 8.24714 1.18213 3.41376
                CHANNELS 3 Zrotation Xrotation Yrotation
                JOINT lMid2
                {
                  OFFSET 3.10165 -0.590103 1.0647
                  CHANNELS 3 Zrotation Xrotation Yrotation
                  End Site
                  {
                    OFFSET 2.48547 -0.328903 0.83742
                  }
                }
              }
              JOINT lRing1
              {
                OFFSET 8.82822 0.546677 1.51678
                CHANNELS 3 Zrotation Xrotation Yrotation
                JOINT lRing2
                {
                  OFFSET 2.60934 -0.819778 -0.0198488
                  CHANNELS 3 Zrotation Xrotation Yrotation
                  End Site
                  {
                    OFFSET 2.33842 -0.294052 0.168128
                  }
                }
              }
              JOINT lPinky1
              {
                OFFSET 8.27202 -0.0477905 -0.4584
                CHANNELS 3 Zrotation Xrotation Yrotation
                JOINT lPinky2
                {
                  OFFSET 1.82734 -0.647385 -0.700984
                  CHANNELS 3 Zrotation Xrotation Yrotation
                  End Site
                  {
                    OFFSET 1.69225 -0.51767 -0.607171
                  }
                }
              }
            }
          }
        }
      }
    }
  }
  JOINT rButtock
  {
    OFFSET -8.77824 4.35084 1.2192
    CHANNELS 3 Zrotation Xrotation Yrotation
    JOINT rThigh
    {
      OFFSET 0 -1.70687 -2.19456
      CHANNELS 3 Zrotation Xrotation Yrotation
      JOINT rShin
      {
        OFFSET 0 -36.8199 0.73152
        CHANNELS 3 Zrotation Xrotation Yrotation
        JOINT rFoot
        {
          OFFSET 0.73152 -45.1104 -5.12064
          CHANNELS 3 Zrotation Xrotation Yrotation
          End Site
          {
            OFFSET -1.1221 -3.69964 12.103
          }
        }
      }
    }
  }
  JOINT lButtock
  {
    OFFSET 8.77824 4.35084 1.2192
    CHANNELS 3 Zrotation Xrotation Yrotation
    JOINT lThigh
    {
      OFFSET 0 -1.70687 -2.19456
      CHANNELS 3 Zrotation Xrotation Yrotation
      JOINT lShin
      {
        OFFSET 0 -36.8199 0.73152
        CHANNELS 3 Zrotation Xrotation Yrotation
        JOINT lFoot
        {
          OFFSET -0.73152 -45.1104 -5.12064
          CHANNELS 3 Zrotation Xrotation Yrotation
          End Site
          {
            OFFSET 1.1221 -3.69964 12.103
          }
        }
      }
    }
  }
}
MOTION
Frames:	5
Frame Time:	0.03333
34.0795 69.7624 -24.2297 -170.091447 -21.039276 174.041456 7.930305 23.97087 -111.551055 8.461039 5.749486 97.237021 -13.982895 18.752098 -34.047473 26.578522 -19.373732 -9.398164 -0.000996 0.0 -0.001306 -0.000996 0.0 -0.001306 2.459699 -18.21626 -3.670338 35.195833 6.25747 -5.211131 174.579776 5.646209 17.793031 -143.791678 35.974019 123.916284 -164.697821 -2.372142 89.585561 1.426964 -51.051211 12.636559 -153.452506 -21.06728 121.746184 -61.16576 57.336264 45.519596 -10.973836 25.790371 7.639325 5.257189 -5.848675 -0.679493 -0.00697 3.557598 1.116276 7.551567 23.984923 3.528096 13.636443 46.898098 11.157497 -148.601924 13.071383 -143.642339 158.072593 -25.117494 -166.016735 119.426052 -65.755194 68.638049 79.658856 -79.575208 -17.275817 6.868332 -27.511149 6.346025 -5.436752 -5.421107 0.582585 -4.609286 -8.953744 7.711875 -179.295493 -59.502429 -116.319303 60.501777 56.300775 -48.341076 0.057327 0.167928 -0.03209 34.367427 55.163447 -28.967654 145.120044 0.268186 179.211619 66.98747 87.687065 -80.232149 75.778168 -51.667617 74.249791 40.120047 -49.381333 41.580254 179.996101 75.750625 0.002667 150.302743 -8.918059 -5.691445 -97.905178 80.349575 91.210603 37.751554 17.813066 5.323002 0.0 0.000321 -0.001616 36.532421 -32.82983 22.540034 -77.814133 80.4058 174.69758 -25.544855 -76.643768 -99.678149
34.9688 68.5871 -25.4398 -170.603437 -25.852386 173.9229 3.210303 27.064705 -1.342689 6.607604 -12.17086 -10.039891 -18.14873 25.49525 -71.693668 40.734296 0.548357 23.444602 0.000911 0.0 0.002292 -2.1e-05 0.0 -0.005658 -82.877366 68.300341 86.000634 -87.941944 38.014001 114.886254 175.850531 20.470718 -62.631686 -13.920602 -13.050925 -4.270627 2.462181 -2.446246 -0.326884 -143.324753 -51.160037 122.041989 -133.600824 11.790989 111.652318 141.909653 -66.025353 86.401868 12.027667 -37.299478 -3.219103 -7.447927 26.167713 6.072589 -70.639324 72.966093 88.425146 -158.692018 -28.253514 -179.876041 -26.565912 -38.860138 -25.606776 -79.309658 -54.243996 -79.664572 -3.737715 -33.150814 6.413988 -4.628623 -44.67556 69.051059 -77.792964 -55.220506 74.890242 124.073498 49.654349 -103.976555 176.759379 -14.369391 -89.6754 122.409031 15.889691 -58.73585 -167.114927 -67.038607 -108.165616 -80.966377 -66.094124 -25.723069 145.288207 29.524399 -132.692375 155.276457 16.648217 -139.283326 145.099457 -1.520338 178.650799 -9.244223 -11.194996 10.520322 134.875174 -13.759696 132.287101 -17.284944 43.721913 -6.223568 -0.000583 0.00014 -0.000291 -68.000407 -58.177151 108.946679 93.588082 -66.70812 -167.735667 -8.98183 18.64616 102.40749 179.646878 75.748924 0.272165 -144.099824 28.722578 -0.0 67.797811 79.206616 -7.831413 -101.60325 23.150722 -10.559935
35.700900000000004 66.85990000000001 -26.4731 -171.878907 -30.835138 174.149985 3.094594 23.118301 -141.467807 0.011165 10.277596 128.08333 1.828013 32.078881 131.124243 -31.514172 32.858111 -172.746786 -0.001318 0.0 -0.004525 -0.000698 -0.0 0.003365 -155.504208 -3.514655 161.838121 101.754224 -54.025528 122.803301 -112.019639 -6.429186 -36.447325 39.633823 -76.349683 23.652382 -78.03064 38.689096 42.412722 22.229343 -25.458731 20.033402 88.791618 -75.499947 40.049842 141.870388 -65.111156 78.280964 173.121436 -66.297524 137.613009 -88.775779 63.806749 80.315493 -74.84144 72.959284 92.828635 5.874359 1.780741 -4.315589 -135.822236 -11.892813 -133.185967 -53.244268 -51.738241 -53.954941 153.588254 -75.693284 178.25868 24.638744 26.606609 43.365065 -3.266404 -47.945652 138.599228 148.442851 26.335 -131.175106 2.814075 2.75422 -0.497306 16.324678 15.550626 -15.712922 179.421518 -58.426195 -117.045646 -7.551505 14.113727 5.862416 160.673737 -6.667447 -143.246308 -2.377505 2.428986 -0.698228 -0.000112 0.063707 -0.020492 156.118758 -13.744518 -173.483876 -16.822607 58.945966 -12.648729 148.143319 11.133396 142.997376 179.999116 75.748797 0.000605 149.052019 10.458256 52.017976 79.714517 59.549246 -177.851244 4.797644 -11.498575 127.463224 179.999116 75.748797 0.000605 -146.026833 24.621675 78.959294 89.976334 0.935966 -25.258497 -148.205768 18.575173 23.280156
36.681200000000004 64.9836 -27.017000000000003 -172.251157 -35.562191 174.070014 0.345845 28.093961 1.812727 9.719223 -13.03822 -15.09946 2.681244 26.102677 93.908104 -33.115318 8.384708 -142.250988 -0.001631 0.0 -0.000248 -0.001631 0.0 -0.000248 -151.981544 14.727874 157.382132 158.887577 -7.175043 136.784095 -14.629334 -31.358226 58.153277 -3.156593 9.512806 -0.312266 -171.602931 -9.286404 89.950196 1.048025 -54.776509 8.751807 -117.25826 28.444233 99.153339 -173.072743 -27.652531 116.051767 0.541319 -1.589964 -0.294321 -170.097603 -25.711107 144.31297 -69.297275 72.946142 87.017335 -95.199618 82.77806 104.247424 12.631899 42.934227 10.53185 0.671269 -2.800036 -1.194046 41.24328 -86.118494 62.79431 11.376599 33.610081 55.045681 100.514586 60.232425 148.075089 13.349335 -70.63678 21.201515 -1.600065 -1.586642 0.223347 132.763794 -31.061606 -117.277754 -21.122849 -37.641475 5.921006 174.431575 -36.408357 -107.779489 82.840549 61.110222 -74.532372 34.413132 55.066719 -29.257828 -0.000714 -0.018584 0.005367 155.448625 -1.618531 -172.043242 150.43361 30.475034 146.248691 141.947111 -4.056424 137.266961 179.99782 75.749629 0.002249 148.601789 19.853646 11.071061 -15.14675 79.922023 128.469473 -4.666912 -9.344271 -95.483018 -179.991024 75.751215 -0.006142 -146.462496 19.556265 -180.0 -107.771195 -77.707563 132.198889 -71.619395 18.575771 -31.342234
37.726 63.3147 -27.5644 -170.300565 -39.980661 172.335193 -0.277956 26.540217 95.766 -11.860114 -11.693775 -111.114725 2.867869 28.802458 105.554803 -32.307416 14.77394 -153.767319 0.000592 0.0 0.000462 1e-05 -0.0 -0.002266 -80.166204 68.371635 83.260853 60.363988 -24.611201 39.834738 117.282852 3.651974 149.594881 -172.318322 43.507109 145.925195 -166.745869 -4.418281 89.779458 142.584587 -46.350941 94.10732 -162.919015 -37.929338 122.629548 -7.542194 33.488366 1.443208 -0.572339 1.648018 0.323426 -168.807507 -21.907223 144.331934 0.002749 1.770627 0.555084 -154.53108 11.221403 170.329342 -55.228365 -50.541762 -53.895977 -127.936792 -28.184615 -126.894825 155.504202 -3.514586 -161.838327 -19.649745 -46.880881 -89.541072 74.35588 -83.330036 -24.890437 13.906398 -51.07492 13.684209 176.066979 -13.697889 -89.739371 30.592303 -31.647498 -1.103748 46.20759 39.653165 -36.318504 155.225999 3.160392 -110.777978 152.825145 14.792784 -138.51408 -30.00778 -60.061402 -7.06435 145.101847 -1.52161 178.65007 129.984906 -67.754014 152.005094 160.127229 66.422627 151.111442 -1.627992 0.382848 1.405719 1.9e-05 -0.001247 -2.4e-05 -37.57554 -39.315544 -26.598335 -51.249074 75.60367 -69.978117 -9.521069 38.569326 131.480356 1.9e-05 -0.001247 -2.4e-05 49.100756 -46.137664 -157.861929 97.977425 -69.333402 -97.136894 66.294913 4.796341 18.016828
